<svg version="1.1" xmlns="http://www.w3.org/2000/svg" xmlns:xlink="http://www.w3.org/1999/xlink" width="693" height="725"><defs></defs><g><g transform="translate(-70,-142) scale(1,1)"><path fill="#C0C0C0" stroke="none" d="M 430 168.5 C 430 163.2532944 434.2532944 159 439.5 159 C 444.7467056 159 449 163.2532944 449 168.5 C 449 173.7467056 444.7467056 178 439.5 178 C 434.2532944 178 430 173.7467056 430 168.5 Z" opacity="0.2"></path></g><g transform="translate(-70,-142) scale(1,1)"><path fill="#000000" stroke="none" d="M 423 161.5 C 423 156.2532944 427.2532944 152 432.5 152 C 437.7467056 152 442 156.2532944 442 161.5 C 442 166.7467056 437.7467056 171 432.5 171 C 427.2532944 171 423 166.7467056 423 161.5 Z"></path></g><g transform="translate(-70,-142) scale(1,1)"><path fill="#C0C0C0" stroke="none" d="M 427 851.5 C 427 844.59644 432.59644 839 439.5 839 C 446.40356 839 452 844.59644 452 851.5 C 452 858.40356 446.40356 864 439.5 864 C 432.59644 864 427 858.40356 427 851.5 Z" opacity="0.2"></path></g><g transform="translate(-70,-142) scale(1,1)"><path fill="none" stroke="#000000" d="M 420 844.5 C 420 837.59644 425.59644 832 432.5 832 C 439.40356 832 445 837.59644 445 844.5 C 445 851.40356 439.40356 857 432.5 857 C 425.59644 857 420 851.40356 420 844.5 Z" stroke-miterlimit="10"></path></g><g transform="translate(-70,-142) scale(1,1)"><path fill="#000000" stroke="none" d="M 425 844.5 C 425 840.357864 428.357864 837 432.5 837 C 436.642136 837 440 840.357864 440 844.5 C 440 848.642136 436.642136 852 432.5 852 C 428.357864 852 425 848.642136 425 844.5 Z"></path></g><g transform="translate(-70,-142) scale(1,1)"><path fill="#C0C0C0" stroke="none" d="M 358 223 L 520 223 Q 530 223 530 233 L 530 253 Q 530 263 520 263 L 358 263 Q 348 263 348 253 L 348 233 Q 348 223 358 223 Z" opacity="0.2"></path></g><g transform="translate(-70,-142) scale(1,1)"><path fill="#ffffff" stroke="none" d="M 351 216 L 513 216 Q 523 216 523 226 L 523 246 Q 523 256 513 256 L 351 256 Q 341 256 341 246 L 341 226 Q 341 216 351 216 Z"></path></g><g transform="translate(-70,-142) scale(1,1)"><path fill="none" stroke="#000000" d="M 351 216 L 513 216 Q 523 216 523 226 L 523 246 Q 523 256 513 256 L 351 256 Q 341 256 341 246 L 341 226 Q 341 216 351 216 Z" stroke-miterlimit="10"></path></g><g transform="translate(-70,-142) scale(1,1)"><g><path fill="none" stroke="none"></path><text fill="#000000" stroke="none" font-family="Arial" font-size="13px" font-style="normal" font-weight="bold" text-decoration="none" x="354" y="235.5">Visit Login or Sign up page</text></g></g><g transform="translate(-70,-142) scale(1,1)"><path fill="#C0C0C0" stroke="none" d="M 379 767 L 499 767 Q 509 767 509 777 L 509 797 Q 509 807 499 807 L 379 807 Q 369 807 369 797 L 369 777 Q 369 767 379 767 Z" opacity="0.2"></path></g><g transform="translate(-70,-142) scale(1,1)"><path fill="#ffffff" stroke="none" d="M 372 760 L 492 760 Q 502 760 502 770 L 502 790 Q 502 800 492 800 L 372 800 Q 362 800 362 790 L 362 770 Q 362 760 372 760 Z"></path></g><g transform="translate(-70,-142) scale(1,1)"><path fill="none" stroke="#000000" d="M 372 760 L 492 760 Q 502 760 502 770 L 502 790 Q 502 800 492 800 L 372 800 Q 362 800 362 790 L 362 770 Q 362 760 372 760 Z" stroke-miterlimit="10"></path></g><g transform="translate(-70,-142) scale(1,1)"><g><path fill="none" stroke="none"></path><text fill="#000000" stroke="none" font-family="Arial" font-size="13px" font-style="normal" font-weight="bold" text-decoration="none" x="373" y="779.5">Visit Logged In page</text></g></g><g transform="translate(-70,-142) scale(1,1)"><path fill="#C0C0C0" stroke="none" d="M 428 696.5 L 439.5 687 L 450 696.5 L 439.5 705 L 428 696.5" opacity="0.2"></path></g><g transform="translate(-70,-142) scale(1,1)"><path fill="#ffffff" stroke="none" d="M 421 689 L 432 680 L 443 689 L 432 698 L 421 689"></path></g><g transform="translate(-70,-142) scale(1,1)"><path fill="none" stroke="#000000" d="M 421 689 L 432 680 L 443 689 L 432 698 L 421 689 L 421 689" stroke-miterlimit="10"></path></g><g transform="translate(-70,-142) scale(1,1)"><path fill="#C0C0C0" stroke="none" d="M 428 616.5 L 439.5 607 L 450 616.5 L 439.5 625 L 428 616.5" opacity="0.2"></path></g><g transform="translate(-70,-142) scale(1,1)"><path fill="#ffffff" stroke="none" d="M 421 609 L 432 600 L 443 609 L 432 618 L 421 609"></path></g><g transform="translate(-70,-142) scale(1,1)"><path fill="none" stroke="#000000" d="M 421 609 L 432 600 L 443 609 L 432 618 L 421 609 L 421 609" stroke-miterlimit="10"></path></g><g transform="translate(-70,-142) scale(1,1)"><path fill="none" stroke="#000000" d="M 431 171 L 431 216" stroke-miterlimit="10"></path></g><g transform="translate(-70,-142) scale(1,1)"><path fill="none" stroke="#000000" d="M 426.790482243984 205.83732514237585 L 431 216 L 435.209517756016 205.83732514237585" stroke-miterlimit="10"></path></g><g transform="translate(-70,-142) scale(1,1)"><path fill="#C0C0C0" stroke="none" d="M 428 296.5 L 439.5 287 L 450 296.5 L 439.5 305 L 428 296.5" opacity="0.2"></path></g><g transform="translate(-70,-142) scale(1,1)"><path fill="#ffffff" stroke="none" d="M 421 289 L 432 280 L 443 289 L 432 298 L 421 289"></path></g><g transform="translate(-70,-142) scale(1,1)"><path fill="none" stroke="#000000" d="M 421 289 L 432 280 L 443 289 L 432 298 L 421 289 L 421 289" stroke-miterlimit="10"></path></g><g transform="translate(-70,-142) scale(1,1)"><path fill="none" stroke="#000000" d="M 432 256 L 432 280" stroke-miterlimit="10"></path></g><g transform="translate(-70,-142) scale(1,1)"><path fill="none" stroke="#000000" d="M 427.790482243984 269.83732514237585 L 432 280 L 436.209517756016 269.83732514237585" stroke-miterlimit="10"></path></g><g transform="translate(-70,-142) scale(1,1)"><path fill="none" stroke="#000000" d="M 421 288 L 208 288 L 208 400" stroke-miterlimit="10"></path></g><g transform="translate(-70,-142) scale(1,1)"><path fill="none" stroke="#000000" d="M 203.790482243984 389.83732514237585 L 208 400 L 212.209517756016 389.83732514237585" stroke-miterlimit="10"></path></g><g transform="translate(-70,-142) scale(1,1)"><g><path fill="none" stroke="none"></path><text fill="#000000" stroke="none" font-family="Arial" font-size="13px" font-style="normal" font-weight="normal" text-decoration="none" x="278.5" y="284.5">new user</text></g></g><g transform="translate(-70,-142) scale(1,1)"><path fill="none" stroke="#000000" d="M 443 288 L 656 288 L 656 360" stroke-miterlimit="10"></path></g><g transform="translate(-70,-142) scale(1,1)"><path fill="none" stroke="#000000" d="M 651.790482243984 349.83732514237585 L 656 360 L 660.209517756016 349.83732514237585" stroke-miterlimit="10"></path></g><g transform="translate(-70,-142) scale(1,1)"><g><path fill="none" stroke="none"></path><text fill="#000000" stroke="none" font-family="Arial" font-size="13px" font-style="normal" font-weight="normal" text-decoration="none" x="518.5" y="283.5">existing user</text></g></g><g transform="translate(-70,-142) scale(1,1)"><path fill="none" stroke="#000000" d="M 656 401 L 656 423" stroke-miterlimit="10"></path></g><g transform="translate(-70,-142) scale(1,1)"><path fill="none" stroke="#000000" d="M 651.790482243984 412.83732514237585 L 656 423 L 660.209517756016 412.83732514237585" stroke-miterlimit="10"></path></g><g transform="translate(-70,-142) scale(1,1)"><path fill="none" stroke="#000000" d="M 656 465 L 656 495" stroke-miterlimit="10"></path></g><g transform="translate(-70,-142) scale(1,1)"><path fill="none" stroke="#000000" d="M 651.790482243984 484.83732514237585 L 656 495 L 660.209517756016 484.83732514237585" stroke-miterlimit="10"></path></g><g transform="translate(-70,-142) scale(1,1)"><path fill="none" stroke="#000000" d="M 656 536 L 656 608 L 443 608" stroke-miterlimit="10"></path></g><g transform="translate(-70,-142) scale(1,1)"><path fill="none" stroke="#000000" d="M 453.16267485762415 603.790482243984 L 443 608 L 453.16267485762415 612.209517756016" stroke-miterlimit="10"></path></g><g transform="translate(-70,-142) scale(1,1)"><path fill="none" stroke="#000000" d="M 208 440 L 208 608 L 421 608" stroke-miterlimit="10"></path></g><g transform="translate(-70,-142) scale(1,1)"><path fill="none" stroke="#000000" d="M 410.83732514237585 612.209517756016 L 421 608 L 410.83732514237585 603.790482243984" stroke-miterlimit="10"></path></g><g transform="translate(-70,-142) scale(1,1)"><path fill="none" stroke="#000000" d="M 432 619 L 432 679" stroke-miterlimit="10"></path></g><g transform="translate(-70,-142) scale(1,1)"><path fill="none" stroke="#000000" d="M 427.790482243984 668.8373251423759 L 432 679 L 436.209517756016 668.8373251423759" stroke-miterlimit="10"></path></g><g transform="translate(-70,-142) scale(1,1)"><path fill="none" stroke="#000000" d="M 421 689 L 80 689 L 80 232 L 341 232" stroke-miterlimit="10"></path></g><g transform="translate(-70,-142) scale(1,1)"><path fill="none" stroke="#000000" d="M 330.83732514237585 236.209517756016 L 341 232 L 330.83732514237585 227.790482243984" stroke-miterlimit="10"></path></g><g transform="translate(-70,-142) scale(1,1)"><g><path fill="none" stroke="none"></path><text fill="#000000" stroke="none" font-family="Arial" font-size="13px" font-style="normal" font-weight="normal" text-decoration="none" x="230.5" y="683.5">not logged in</text></g></g><g transform="translate(-70,-142) scale(1,1)"><path fill="none" stroke="#000000" d="M 432 699 L 432 759" stroke-miterlimit="10"></path></g><g transform="translate(-70,-142) scale(1,1)"><path fill="none" stroke="#000000" d="M 427.790482243984 748.8373251423759 L 432 759 L 436.209517756016 748.8373251423759" stroke-miterlimit="10"></path></g><g transform="translate(-70,-142) scale(1,1)"><g><path fill="none" stroke="none"></path><text fill="#000000" stroke="none" font-family="Arial" font-size="13px" font-style="normal" font-weight="normal" text-decoration="none" x="440.5" y="734.5">logged in</text></g></g><g transform="translate(-70,-142) scale(1,1)"><path fill="none" stroke="#000000" d="M 432 801 L 432 831" stroke-miterlimit="10"></path></g><g transform="translate(-70,-142) scale(1,1)"><path fill="none" stroke="#000000" d="M 427.790482243984 820.8373251423759 L 432 831 L 436.209517756016 820.8373251423759" stroke-miterlimit="10"></path></g><g transform="translate(-70,-142) scale(1,1)"><path fill="#C0C0C0" stroke="none" d="M 577 327 L 750 327 Q 760 327 760 337 L 760 557 Q 760 567 750 567 L 577 567 Q 567 567 567 557 L 567 337 Q 567 327 577 327 Z" opacity="0.2"></path></g><g transform="translate(-70,-142) scale(1,1)"><path fill="#ffffff" stroke="none" d="M 570 320 L 743 320 Q 753 320 753 330 L 753 550 Q 753 560 743 560 L 570 560 Q 560 560 560 550 L 560 330 Q 560 320 570 320 Z"></path></g><g transform="translate(-70,-142) scale(1,1)"><path fill="none" stroke="#000000" d="M 570 320 L 743 320 Q 753 320 753 330 L 753 550 Q 753 560 743 560 L 570 560 Q 560 560 560 550 L 560 330 Q 560 320 570 320 Z" stroke-miterlimit="10" stroke-dasharray="3"></path></g><g transform="translate(-70,-142) scale(1,1)"><g><path fill="none" stroke="none"></path><text fill="#000000" stroke="none" font-family="Arial" font-size="13px" font-style="normal" font-weight="normal" text-decoration="none" x="565" y="337.5">«structured»</text></g></g><g transform="translate(-70,-142) scale(1,1)"><g><path fill="none" stroke="none"></path><text fill="#000000" stroke="none" font-family="Arial" font-size="13px" font-style="normal" font-weight="bold" text-decoration="none" x="633.5" y="352.5">Sign Up</text></g></g><g transform="translate(-70,-142) scale(1,1)"><path fill="#C0C0C0" stroke="none" d="M 609 367 L 718 367 Q 728 367 728 377 L 728 397 Q 728 407 718 407 L 609 407 Q 599 407 599 397 L 599 377 Q 599 367 609 367 Z" opacity="0.2"></path></g><g transform="translate(-70,-142) scale(1,1)"><path fill="#ffffff" stroke="none" d="M 602 360 L 711 360 Q 721 360 721 370 L 721 390 Q 721 400 711 400 L 602 400 Q 592 400 592 390 L 592 370 Q 592 360 602 360 Z"></path></g><g transform="translate(-70,-142) scale(1,1)"><path fill="none" stroke="#000000" d="M 602 360 L 711 360 Q 721 360 721 370 L 721 390 Q 721 400 711 400 L 602 400 Q 592 400 592 390 L 592 370 Q 592 360 602 360 Z" stroke-miterlimit="10"></path></g><g transform="translate(-70,-142) scale(1,1)"><g><path fill="none" stroke="none"></path><text fill="#000000" stroke="none" font-family="Arial" font-size="13px" font-style="normal" font-weight="bold" text-decoration="none" x="610.5" y="379.5">Enter username</text></g></g><g transform="translate(-70,-142) scale(1,1)"><path fill="#C0C0C0" stroke="none" d="M 620 431 L 706 431 Q 716 431 716 441 L 716 461 Q 716 471 706 471 L 620 471 Q 610 471 610 461 L 610 441 Q 610 431 620 431 Z" opacity="0.2"></path></g><g transform="translate(-70,-142) scale(1,1)"><path fill="#ffffff" stroke="none" d="M 613 424 L 699 424 Q 709 424 709 434 L 709 454 Q 709 464 699 464 L 613 464 Q 603 464 603 454 L 603 434 Q 603 424 613 424 Z"></path></g><g transform="translate(-70,-142) scale(1,1)"><path fill="none" stroke="#000000" d="M 613 424 L 699 424 Q 709 424 709 434 L 709 454 Q 709 464 699 464 L 613 464 Q 603 464 603 454 L 603 434 Q 603 424 613 424 Z" stroke-miterlimit="10"></path></g><g transform="translate(-70,-142) scale(1,1)"><g><path fill="none" stroke="none"></path><text fill="#000000" stroke="none" font-family="Arial" font-size="13px" font-style="normal" font-weight="bold" text-decoration="none" x="611" y="443.5">Enter password</text></g></g><g transform="translate(-70,-142) scale(1,1)"><path fill="#C0C0C0" stroke="none" d="M 610 503 L 717 503 Q 727 503 727 513 L 727 533 Q 727 543 717 543 L 610 543 Q 600 543 600 533 L 600 513 Q 600 503 610 503 Z" opacity="0.2"></path></g><g transform="translate(-70,-142) scale(1,1)"><path fill="#ffffff" stroke="none" d="M 603 496 L 710 496 Q 720 496 720 506 L 720 526 Q 720 536 710 536 L 603 536 Q 593 536 593 526 L 593 506 Q 593 496 603 496 Z"></path></g><g transform="translate(-70,-142) scale(1,1)"><path fill="none" stroke="#000000" d="M 603 496 L 710 496 Q 720 496 720 506 L 720 526 Q 720 536 710 536 L 603 536 Q 593 536 593 526 L 593 506 Q 593 496 603 496 Z" stroke-miterlimit="10"></path></g><g transform="translate(-70,-142) scale(1,1)"><g><path fill="none" stroke="none"></path><text fill="#000000" stroke="none" font-family="Arial" font-size="13px" font-style="normal" font-weight="bold" text-decoration="none" x="602.5" y="515.5">Re enter password</text></g></g><g transform="translate(-70,-142) scale(1,1)"><path fill="#C0C0C0" stroke="none" d="M 145 359 L 286 359 Q 296 359 296 369 L 296 533 Q 296 543 286 543 L 145 543 Q 135 543 135 533 L 135 369 Q 135 359 145 359 Z" opacity="0.2"></path></g><g transform="translate(-70,-142) scale(1,1)"><path fill="#ffffff" stroke="none" d="M 138 352 L 279 352 Q 289 352 289 362 L 289 526 Q 289 536 279 536 L 138 536 Q 128 536 128 526 L 128 362 Q 128 352 138 352 Z"></path></g><g transform="translate(-70,-142) scale(1,1)"><path fill="none" stroke="#000000" d="M 138 352 L 279 352 Q 289 352 289 362 L 289 526 Q 289 536 279 536 L 138 536 Q 128 536 128 526 L 128 362 Q 128 352 138 352 Z" stroke-miterlimit="10" stroke-dasharray="3"></path></g><g transform="translate(-70,-142) scale(1,1)"><g><path fill="none" stroke="none"></path><text fill="#000000" stroke="none" font-family="Arial" font-size="13px" font-style="normal" font-weight="normal" text-decoration="none" x="133" y="369.5">«structured»</text></g></g><g transform="translate(-70,-142) scale(1,1)"><g><path fill="none" stroke="none"></path><text fill="#000000" stroke="none" font-family="Arial" font-size="13px" font-style="normal" font-weight="bold" text-decoration="none" x="193" y="384.5">Login</text></g></g><g transform="translate(-70,-142) scale(1,1)"><path fill="#C0C0C0" stroke="none" d="M 171 407 L 260 407 Q 270 407 270 417 L 270 437 Q 270 447 260 447 L 171 447 Q 161 447 161 437 L 161 417 Q 161 407 171 407 Z" opacity="0.2"></path></g><g transform="translate(-70,-142) scale(1,1)"><path fill="#ffffff" stroke="none" d="M 164 400 L 253 400 Q 263 400 263 410 L 263 430 Q 263 440 253 440 L 164 440 Q 154 440 154 430 L 154 410 Q 154 400 164 400 Z"></path></g><g transform="translate(-70,-142) scale(1,1)"><path fill="none" stroke="#000000" d="M 164 400 L 253 400 Q 263 400 263 410 L 263 430 Q 263 440 253 440 L 164 440 Q 154 440 154 430 L 154 410 Q 154 400 164 400 Z" stroke-miterlimit="10"></path></g><g transform="translate(-70,-142) scale(1,1)"><g><path fill="none" stroke="none"></path><text fill="#000000" stroke="none" font-family="Arial" font-size="13px" font-style="normal" font-weight="bold" text-decoration="none" x="162.5" y="419.5">Enter username</text></g></g><g transform="translate(-70,-142) scale(1,1)"><path fill="none" stroke="#000000" d="M 656 400 L 656 424" stroke-miterlimit="10"></path></g><g transform="translate(-70,-142) scale(1,1)"><path fill="none" stroke="#000000" d="M 651.790482243984 413.83732514237585 L 656 424 L 660.209517756016 413.83732514237585" stroke-miterlimit="10"></path></g><g transform="translate(-70,-142) scale(1,1)"><path fill="none" stroke="#000000" d="M 656 464 L 656 496" stroke-miterlimit="10"></path></g><g transform="translate(-70,-142) scale(1,1)"><path fill="none" stroke="#000000" d="M 651.790482243984 485.83732514237585 L 656 496 L 660.209517756016 485.83732514237585" stroke-miterlimit="10"></path></g><g transform="translate(-70,-142) scale(1,1)"><path fill="none" stroke="#000000" d="M 208 440 L 208 472" stroke-miterlimit="10"></path></g><g transform="translate(-70,-142) scale(1,1)"><path fill="none" stroke="#000000" d="M 203.790482243984 461.83732514237585 L 208 472 L 212.209517756016 461.83732514237585" stroke-miterlimit="10"></path></g><g transform="translate(-70,-142) scale(1,1)"><path fill="#C0C0C0" stroke="none" d="M 172 479 L 258 479 Q 268 479 268 489 L 268 509 Q 268 519 258 519 L 172 519 Q 162 519 162 509 L 162 489 Q 162 479 172 479 Z" opacity="0.2"></path></g><g transform="translate(-70,-142) scale(1,1)"><path fill="#ffffff" stroke="none" d="M 165 472 L 251 472 Q 261 472 261 482 L 261 502 Q 261 512 251 512 L 165 512 Q 155 512 155 502 L 155 482 Q 155 472 165 472 Z"></path></g><g transform="translate(-70,-142) scale(1,1)"><path fill="none" stroke="#000000" d="M 165 472 L 251 472 Q 261 472 261 482 L 261 502 Q 261 512 251 512 L 165 512 Q 155 512 155 502 L 155 482 Q 155 472 165 472 Z" stroke-miterlimit="10"></path></g><g transform="translate(-70,-142) scale(1,1)"><g><path fill="none" stroke="none"></path><text fill="#000000" stroke="none" font-family="Arial" font-size="13px" font-style="normal" font-weight="bold" text-decoration="none" x="163" y="491.5">Enter password</text></g></g></g></svg>