<svg version="1.1" xmlns="http://www.w3.org/2000/svg" xmlns:xlink="http://www.w3.org/1999/xlink" width="743" height="614"><defs></defs><g><g transform="translate(5,5) scale(1,1)"><path fill="none" stroke="#000000" d="M 5 5 L 728 5 L 728 599 L 5 599 L 5 5" stroke-miterlimit="10"></path></g><g transform="translate(5,5) scale(1,1)"><path fill="#ffffff" stroke="none" d="M 5 5 L 5 27 L 166 27 L 177 16 L 177 5 L 5 5"></path></g><g transform="translate(5,5) scale(1,1)"><path fill="none" stroke="#000000" d="M 5 5 L 5 27 L 166 27 L 177 16 L 177 5 L 5 5 L 5 5" stroke-miterlimit="10"></path></g><g transform="translate(5,5) scale(1,1)"><g><path fill="none" stroke="none"></path><text fill="#000000" stroke="none" font-family="Arial" font-size="13px" font-style="normal" font-weight="normal" text-decoration="none" x="76" y="22.5">rate_sequence</text></g></g><g transform="translate(5,5) scale(1,1)"><g><path fill="none" stroke="none"></path><text fill="#000000" stroke="none" font-family="Arial" font-size="13px" font-style="normal" font-weight="bold" text-decoration="none" x="10" y="22.5">interaction</text></g></g><g transform="translate(5,5) scale(1,1)"><rect fill="#C0C0C0" stroke="none" x="111" y="47" width="74" height="39" opacity="0.2"></rect></g><g transform="translate(5,5) scale(1,1)"><rect fill="#ffffff" stroke="none" x="104" y="40" width="74" height="39"></rect></g><g transform="translate(5,5) scale(1,1)"><path fill="none" stroke="#000000" d="M 104 40 L 178 40 L 178 79 L 104 79 L 104 40 Z Z" stroke-miterlimit="10"></path></g><g transform="translate(5,5) scale(1,1)"><g><path fill="none" stroke="none"></path><text fill="#000000" stroke="none" font-family="Arial" font-size="13px" font-style="normal" font-weight="bold" text-decoration="none" x="127.5" y="59.5">User</text></g></g><g transform="translate(5,5) scale(1,1)"><path fill="none" stroke="#000000" d="M 142.5 80 L 142.5 310" stroke-miterlimit="10" stroke-dasharray="3"></path></g><g transform="translate(5,5) scale(1,1)"><rect fill="#C0C0C0" stroke="none" x="335" y="47" width="112" height="39" opacity="0.2"></rect></g><g transform="translate(5,5) scale(1,1)"><rect fill="#ffffff" stroke="none" x="328" y="40" width="112" height="39"></rect></g><g transform="translate(5,5) scale(1,1)"><path fill="none" stroke="#000000" d="M 328 40 L 440 40 L 440 79 L 328 79 L 328 40 Z Z" stroke-miterlimit="10"></path></g><g transform="translate(5,5) scale(1,1)"><g><path fill="none" stroke="none"></path><text fill="#000000" stroke="none" font-family="Arial" font-size="13px" font-style="normal" font-weight="bold" text-decoration="none" x="342" y="59.5">Recommender</text></g></g><g transform="translate(5,5) scale(1,1)"><path fill="none" stroke="#000000" d="M 385.5 80 L 385.5 310" stroke-miterlimit="10" stroke-dasharray="3"></path></g><g transform="translate(5,5) scale(1,1)"><rect fill="#C0C0C0" stroke="none" x="631" y="47" width="78" height="39" opacity="0.2"></rect></g><g transform="translate(5,5) scale(1,1)"><rect fill="#ffffff" stroke="none" x="624" y="40" width="78" height="39"></rect></g><g transform="translate(5,5) scale(1,1)"><path fill="none" stroke="#000000" d="M 624 40 L 702 40 L 702 79 L 624 79 L 624 40 Z Z" stroke-miterlimit="10"></path></g><g transform="translate(5,5) scale(1,1)"><g><path fill="none" stroke="none"></path><text fill="#000000" stroke="none" font-family="Arial" font-size="13px" font-style="normal" font-weight="bold" text-decoration="none" x="635.5" y="59.5">Database</text></g></g><g transform="translate(5,5) scale(1,1)"><path fill="none" stroke="#000000" d="M 664.5 80 L 664.5 286" stroke-miterlimit="10" stroke-dasharray="3"></path></g><g transform="translate(5,5) scale(1,1)"><path fill="none" stroke="#000000" d="M 142 104 L 378 104" stroke-miterlimit="10"></path></g><g transform="translate(5,5) scale(1,1)"><path fill="#000000" stroke="none" d="M 367.83732514237585 108.20951775601598 L 378 104 L 367.83732514237585 99.79048224398402"></path></g><g transform="translate(5,5) scale(1,1)"><path fill="none" stroke="#000000" d="M 367.83732514237585 108.20951775601598 L 378 104 L 367.83732514237585 99.79048224398402 L 367.83732514237585 108.20951775601598" stroke-miterlimit="10"></path></g><g transform="translate(5,5) scale(1,1)"><g><path fill="none" stroke="none"></path><text fill="#000000" stroke="none" font-family="Arial" font-size="13px" font-style="normal" font-weight="normal" text-decoration="none" x="223.5" y="100.5">1 : set rating</text></g></g><g transform="translate(5,5) scale(1,1)"><rect fill="#ffffff" stroke="none" x="378" y="104" width="13" height="192"></rect></g><g transform="translate(5,5) scale(1,1)"><path fill="none" stroke="#000000" d="M 378 104 L 391 104 L 391 296 L 378 296 L 378 104 Z Z" stroke-miterlimit="10"></path></g><g transform="translate(5,5) scale(1,1)"><path fill="none" stroke="#000000" d="M 391 144 L 657 144" stroke-miterlimit="10"></path></g><g transform="translate(5,5) scale(1,1)"><path fill="#000000" stroke="none" d="M 646.8373251423759 148.209517756016 L 657 144 L 646.8373251423758 139.790482243984"></path></g><g transform="translate(5,5) scale(1,1)"><path fill="none" stroke="#000000" d="M 646.8373251423759 148.209517756016 L 657 144 L 646.8373251423758 139.790482243984 L 646.8373251423759 148.209517756016" stroke-miterlimit="10"></path></g><g transform="translate(5,5) scale(1,1)"><g><path fill="none" stroke="none"></path><text fill="#000000" stroke="none" font-family="Arial" font-size="13px" font-style="normal" font-weight="normal" text-decoration="none" x="472.5" y="139.5">2 : get movie ID</text></g></g><g transform="translate(5,5) scale(1,1)"><rect fill="#ffffff" stroke="none" x="657" y="144" width="13" height="48"></rect></g><g transform="translate(5,5) scale(1,1)"><path fill="none" stroke="#000000" d="M 657 144 L 670 144 L 670 192 L 657 192 L 657 144 Z Z" stroke-miterlimit="10"></path></g><g transform="translate(5,5) scale(1,1)"><path fill="none" stroke="#000000" d="M 657 184 L 391 184" stroke-miterlimit="10" stroke-dasharray="3"></path></g><g transform="translate(5,5) scale(1,1)"><path fill="none" stroke="#000000" d="M 401.16267485762415 179.790482243984 L 391 184 L 401.16267485762415 188.209517756016" stroke-miterlimit="10"></path></g><g transform="translate(5,5) scale(1,1)"><g><path fill="none" stroke="none"></path><text fill="#000000" stroke="none" font-family="Arial" font-size="13px" font-style="normal" font-weight="normal" text-decoration="none" x="482.5" y="177.5">3 : movie ID</text></g></g><g transform="translate(5,5) scale(1,1)"><path fill="none" stroke="#000000" d="M 657 256 L 391 256" stroke-miterlimit="10" stroke-dasharray="3"></path></g><g transform="translate(5,5) scale(1,1)"><path fill="none" stroke="#000000" d="M 401.16267485762415 251.790482243984 L 391 256 L 401.16267485762415 260.209517756016" stroke-miterlimit="10"></path></g><g transform="translate(5,5) scale(1,1)"><g><path fill="none" stroke="none"></path><text fill="#000000" stroke="none" font-family="Arial" font-size="13px" font-style="normal" font-weight="normal" text-decoration="none" x="452.5" y="248.5">5 : movie rating updated</text></g></g><g transform="translate(5,5) scale(1,1)"><path fill="none" stroke="#000000" d="M 378 288 L 142 288" stroke-miterlimit="10" stroke-dasharray="3"></path></g><g transform="translate(5,5) scale(1,1)"><path fill="none" stroke="#000000" d="M 152.16267485762415 283.790482243984 L 142 288 L 152.16267485762415 292.209517756016" stroke-miterlimit="10"></path></g><g transform="translate(5,5) scale(1,1)"><g><path fill="none" stroke="none"></path><text fill="#000000" stroke="none" font-family="Arial" font-size="13px" font-style="normal" font-weight="normal" text-decoration="none" x="215" y="286.5">6 : rating saved</text></g></g><g transform="translate(5,5) scale(1,1)"><path fill="none" stroke="#000000" d="M 391 216 L 657 216" stroke-miterlimit="10"></path></g><g transform="translate(5,5) scale(1,1)"><path fill="#000000" stroke="none" d="M 646.8373251423759 220.209517756016 L 657 216 L 646.8373251423758 211.790482243984"></path></g><g transform="translate(5,5) scale(1,1)"><path fill="none" stroke="#000000" d="M 646.8373251423759 220.209517756016 L 657 216 L 646.8373251423758 211.790482243984 L 646.8373251423759 220.209517756016" stroke-miterlimit="10"></path></g><g transform="translate(5,5) scale(1,1)"><g><path fill="none" stroke="none"></path><text fill="#000000" stroke="none" font-family="Arial" font-size="13px" font-style="normal" font-weight="normal" text-decoration="none" x="439.5" y="212.5">4 : store movie rating for user</text></g></g><g transform="translate(5,5) scale(1,1)"><rect fill="#ffffff" stroke="none" x="657" y="216" width="13" height="56"></rect></g><g transform="translate(5,5) scale(1,1)"><path fill="none" stroke="#000000" d="M 657 216 L 670 216 L 670 272 L 657 272 L 657 216 Z Z" stroke-miterlimit="10"></path></g></g></svg>