<svg version="1.1" xmlns="http://www.w3.org/2000/svg" xmlns:xlink="http://www.w3.org/1999/xlink" width="714" height="614"><defs></defs><g><g transform="translate(10,5) scale(1,1)"><path fill="none" stroke="#000000" d="M 0 5 L 694 5 L 694 599 L 0 599 L 0 5" stroke-miterlimit="10"></path></g><g transform="translate(10,5) scale(1,1)"><path fill="#ffffff" stroke="none" d="M 0 5 L 0 27 L 178 27 L 189 16 L 189 5 L 0 5"></path></g><g transform="translate(10,5) scale(1,1)"><path fill="none" stroke="#000000" d="M 0 5 L 0 27 L 178 27 L 189 16 L 189 5 L 0 5 L 0 5" stroke-miterlimit="10"></path></g><g transform="translate(10,5) scale(1,1)"><g><path fill="none" stroke="none"></path><text fill="#000000" stroke="none" font-family="Arial" font-size="13px" font-style="normal" font-weight="normal" text-decoration="none" x="71" y="22.5">search_sequence</text></g></g><g transform="translate(10,5) scale(1,1)"><g><path fill="none" stroke="none"></path><text fill="#000000" stroke="none" font-family="Arial" font-size="13px" font-style="normal" font-weight="bold" text-decoration="none" x="5" y="22.5">interaction</text></g></g><g transform="translate(10,5) scale(1,1)"><rect fill="#C0C0C0" stroke="none" x="151" y="47" width="74" height="39" opacity="0.2"></rect></g><g transform="translate(10,5) scale(1,1)"><rect fill="#ffffff" stroke="none" x="144" y="40" width="74" height="39"></rect></g><g transform="translate(10,5) scale(1,1)"><path fill="none" stroke="#000000" d="M 144 40 L 218 40 L 218 79 L 144 79 L 144 40 Z Z" stroke-miterlimit="10"></path></g><g transform="translate(10,5) scale(1,1)"><g><path fill="none" stroke="none"></path><text fill="#000000" stroke="none" font-family="Arial" font-size="13px" font-style="normal" font-weight="bold" text-decoration="none" x="167.5" y="59.5">User</text></g></g><g transform="translate(10,5) scale(1,1)"><path fill="none" stroke="#000000" d="M 182.5 80 L 182.5 239" stroke-miterlimit="10" stroke-dasharray="3"></path></g><g transform="translate(10,5) scale(1,1)"><rect fill="#C0C0C0" stroke="none" x="383" y="47" width="112" height="39" opacity="0.2"></rect></g><g transform="translate(10,5) scale(1,1)"><rect fill="#ffffff" stroke="none" x="376" y="40" width="112" height="39"></rect></g><g transform="translate(10,5) scale(1,1)"><path fill="none" stroke="#000000" d="M 376 40 L 488 40 L 488 79 L 376 79 L 376 40 Z Z" stroke-miterlimit="10"></path></g><g transform="translate(10,5) scale(1,1)"><g><path fill="none" stroke="none"></path><text fill="#000000" stroke="none" font-family="Arial" font-size="13px" font-style="normal" font-weight="bold" text-decoration="none" x="390" y="59.5">Recommender</text></g></g><g transform="translate(10,5) scale(1,1)"><path fill="none" stroke="#000000" d="M 433.5 80 L 433.5 239" stroke-miterlimit="10" stroke-dasharray="3"></path></g><g transform="translate(10,5) scale(1,1)"><rect fill="#C0C0C0" stroke="none" x="615" y="47" width="78" height="39" opacity="0.2"></rect></g><g transform="translate(10,5) scale(1,1)"><rect fill="#ffffff" stroke="none" x="608" y="40" width="78" height="39"></rect></g><g transform="translate(10,5) scale(1,1)"><path fill="none" stroke="#000000" d="M 608 40 L 686 40 L 686 79 L 608 79 L 608 40 Z Z" stroke-miterlimit="10"></path></g><g transform="translate(10,5) scale(1,1)"><g><path fill="none" stroke="none"></path><text fill="#000000" stroke="none" font-family="Arial" font-size="13px" font-style="normal" font-weight="bold" text-decoration="none" x="619.5" y="59.5">Database</text></g></g><g transform="translate(10,5) scale(1,1)"><path fill="none" stroke="#000000" d="M 648.5 80 L 648.5 239" stroke-miterlimit="10" stroke-dasharray="3"></path></g><g transform="translate(10,5) scale(1,1)"><path fill="none" stroke="#000000" d="M 182 112 L 426 112" stroke-miterlimit="10"></path></g><g transform="translate(10,5) scale(1,1)"><path fill="#000000" stroke="none" d="M 415.83732514237585 116.20951775601598 L 426 112 L 415.83732514237585 107.79048224398402"></path></g><g transform="translate(10,5) scale(1,1)"><path fill="none" stroke="#000000" d="M 415.83732514237585 116.20951775601598 L 426 112 L 415.83732514237585 107.79048224398402 L 415.83732514237585 116.20951775601598" stroke-miterlimit="10"></path></g><g transform="translate(10,5) scale(1,1)"><g><path fill="none" stroke="none"></path><text fill="#000000" stroke="none" font-family="Arial" font-size="13px" font-style="normal" font-weight="normal" text-decoration="none" x="256.5" y="108.5">1 : search movie</text></g></g><g transform="translate(10,5) scale(1,1)"><rect fill="#ffffff" stroke="none" x="426" y="112" width="13" height="104"></rect></g><g transform="translate(10,5) scale(1,1)"><path fill="none" stroke="#000000" d="M 426 112 L 439 112 L 439 216 L 426 216 L 426 112 Z Z" stroke-miterlimit="10"></path></g><g transform="translate(10,5) scale(1,1)"><path fill="none" stroke="#000000" d="M 439 136 L 641 136" stroke-miterlimit="10"></path></g><g transform="translate(10,5) scale(1,1)"><path fill="#000000" stroke="none" d="M 630.8373251423759 140.209517756016 L 641 136 L 630.8373251423758 131.790482243984"></path></g><g transform="translate(10,5) scale(1,1)"><path fill="none" stroke="#000000" d="M 630.8373251423759 140.209517756016 L 641 136 L 630.8373251423758 131.790482243984 L 630.8373251423759 140.209517756016" stroke-miterlimit="10"></path></g><g transform="translate(10,5) scale(1,1)"><g><path fill="none" stroke="none"></path><text fill="#000000" stroke="none" font-family="Arial" font-size="13px" font-style="normal" font-weight="normal" text-decoration="none" x="483.5" y="131.5">2 : find movie ids</text></g></g><g transform="translate(10,5) scale(1,1)"><rect fill="#ffffff" stroke="none" x="641" y="136" width="13" height="40"></rect></g><g transform="translate(10,5) scale(1,1)"><path fill="none" stroke="#000000" d="M 641 136 L 654 136 L 654 176 L 641 176 L 641 136 Z Z" stroke-miterlimit="10"></path></g><g transform="translate(10,5) scale(1,1)"><path fill="none" stroke="#000000" d="M 648 176 L 439 176" stroke-miterlimit="10" stroke-dasharray="3"></path></g><g transform="translate(10,5) scale(1,1)"><path fill="none" stroke="#000000" d="M 449.16267485762415 171.790482243984 L 439 176 L 449.16267485762415 180.209517756016" stroke-miterlimit="10"></path></g><g transform="translate(10,5) scale(1,1)"><g><path fill="none" stroke="none"></path><text fill="#000000" stroke="none" font-family="Arial" font-size="13px" font-style="normal" font-weight="normal" text-decoration="none" x="505.5" y="192.5">3 : movie ids</text></g></g><g transform="translate(10,5) scale(1,1)"><path fill="none" stroke="#000000" d="M 426 208 L 182 208" stroke-miterlimit="10" stroke-dasharray="3"></path></g><g transform="translate(10,5) scale(1,1)"><path fill="none" stroke="#000000" d="M 192.16267485762415 203.790482243984 L 182 208 L 192.16267485762415 212.209517756016" stroke-miterlimit="10"></path></g><g transform="translate(10,5) scale(1,1)"><g><path fill="none" stroke="none"></path><text fill="#000000" stroke="none" font-family="Arial" font-size="13px" font-style="normal" font-weight="normal" text-decoration="none" x="223.5" y="224.5">4 : movies matching search</text></g></g></g></svg>