<svg version="1.1" xmlns="http://www.w3.org/2000/svg" xmlns:xlink="http://www.w3.org/1999/xlink" width="714" height="614"><defs></defs><g><g transform="translate(-38,10) scale(1,1)"><path fill="none" stroke="#000000" d="M 48 0 L 742 0 L 742 594 L 48 594 L 48 0" stroke-miterlimit="10"></path></g><g transform="translate(-38,10) scale(1,1)"><path fill="#ffffff" stroke="none" d="M 48 0 L 48 22 L 214 22 L 225 11 L 225 0 L 48 0"></path></g><g transform="translate(-38,10) scale(1,1)"><path fill="none" stroke="#000000" d="M 48 0 L 48 22 L 214 22 L 225 11 L 225 0 L 48 0 L 48 0" stroke-miterlimit="10"></path></g><g transform="translate(-38,10) scale(1,1)"><g><path fill="none" stroke="none"></path><text fill="#000000" stroke="none" font-family="Arial" font-size="13px" font-style="normal" font-weight="normal" text-decoration="none" x="119" y="17.5">login_sequence</text></g></g><g transform="translate(-38,10) scale(1,1)"><g><path fill="none" stroke="none"></path><text fill="#000000" stroke="none" font-family="Arial" font-size="13px" font-style="normal" font-weight="bold" text-decoration="none" x="53" y="17.5">interaction</text></g></g><g transform="translate(-38,10) scale(1,1)"><rect fill="#C0C0C0" stroke="none" x="159" y="47" width="74" height="39" opacity="0.2"></rect></g><g transform="translate(-38,10) scale(1,1)"><rect fill="#ffffff" stroke="none" x="152" y="40" width="74" height="39"></rect></g><g transform="translate(-38,10) scale(1,1)"><path fill="none" stroke="#000000" d="M 152 40 L 226 40 L 226 79 L 152 79 L 152 40 Z Z" stroke-miterlimit="10"></path></g><g transform="translate(-38,10) scale(1,1)"><g><path fill="none" stroke="none"></path><text fill="#000000" stroke="none" font-family="Arial" font-size="13px" font-style="normal" font-weight="bold" text-decoration="none" x="176.5" y="59.5">user</text></g></g><g transform="translate(-38,10) scale(1,1)"><path fill="none" stroke="#000000" d="M 190.5 80 L 190.5 308" stroke-miterlimit="10" stroke-dasharray="3"></path></g><g transform="translate(-38,10) scale(1,1)"><rect fill="#C0C0C0" stroke="none" x="351" y="47" width="111" height="39" opacity="0.2"></rect></g><g transform="translate(-38,10) scale(1,1)"><rect fill="#ffffff" stroke="none" x="344" y="40" width="111" height="39"></rect></g><g transform="translate(-38,10) scale(1,1)"><path fill="none" stroke="#000000" d="M 344 40 L 455 40 L 455 79 L 344 79 L 344 40 Z Z" stroke-miterlimit="10"></path></g><g transform="translate(-38,10) scale(1,1)"><g><path fill="none" stroke="none"></path><text fill="#000000" stroke="none" font-family="Arial" font-size="13px" font-style="normal" font-weight="bold" text-decoration="none" x="358" y="59.5">Authentication</text></g></g><g transform="translate(-38,10) scale(1,1)"><path fill="none" stroke="#000000" d="M 400.5 80 L 400.5 304" stroke-miterlimit="10" stroke-dasharray="3"></path></g><g transform="translate(-38,10) scale(1,1)"><rect fill="#C0C0C0" stroke="none" x="599" y="47" width="78" height="39" opacity="0.2"></rect></g><g transform="translate(-38,10) scale(1,1)"><rect fill="#ffffff" stroke="none" x="592" y="40" width="78" height="39"></rect></g><g transform="translate(-38,10) scale(1,1)"><path fill="none" stroke="#000000" d="M 592 40 L 670 40 L 670 79 L 592 79 L 592 40 Z Z" stroke-miterlimit="10"></path></g><g transform="translate(-38,10) scale(1,1)"><g><path fill="none" stroke="none"></path><text fill="#000000" stroke="none" font-family="Arial" font-size="13px" font-style="normal" font-weight="bold" text-decoration="none" x="603.5" y="59.5">Database</text></g></g><g transform="translate(-38,10) scale(1,1)"><path fill="none" stroke="#000000" d="M 632.5 80 L 632.5 312" stroke-miterlimit="10" stroke-dasharray="3"></path></g><g transform="translate(-38,10) scale(1,1)"><path fill="none" stroke="#000000" d="M 190 112 L 393 112" stroke-miterlimit="10"></path></g><g transform="translate(-38,10) scale(1,1)"><path fill="#000000" stroke="none" d="M 382.83732514237585 116.20951775601598 L 393 112 L 382.83732514237585 107.79048224398402"></path></g><g transform="translate(-38,10) scale(1,1)"><path fill="none" stroke="#000000" d="M 382.83732514237585 116.20951775601598 L 393 112 L 382.83732514237585 107.79048224398402 L 382.83732514237585 116.20951775601598" stroke-miterlimit="10"></path></g><g transform="translate(-38,10) scale(1,1)"><g><path fill="none" stroke="none"></path><text fill="#000000" stroke="none" font-family="Arial" font-size="13px" font-style="normal" font-weight="normal" text-decoration="none" x="194.5" y="108.5">1 : enter username and password</text></g></g><g transform="translate(-38,10) scale(1,1)"><rect fill="#ffffff" stroke="none" x="393" y="112" width="13" height="28"></rect></g><g transform="translate(-38,10) scale(1,1)"><path fill="none" stroke="#000000" d="M 393 112 L 406 112 L 406 140 L 393 140 L 393 112 Z Z" stroke-miterlimit="10"></path></g><g transform="translate(-38,10) scale(1,1)"><path fill="none" stroke="#000000" d="M 406 136 L 625 136" stroke-miterlimit="10"></path></g><g transform="translate(-38,10) scale(1,1)"><path fill="#000000" stroke="none" d="M 614.8373251423759 140.209517756016 L 625 136 L 614.8373251423758 131.790482243984"></path></g><g transform="translate(-38,10) scale(1,1)"><path fill="none" stroke="#000000" d="M 614.8373251423759 140.209517756016 L 625 136 L 614.8373251423758 131.790482243984 L 614.8373251423759 140.209517756016" stroke-miterlimit="10"></path></g><g transform="translate(-38,10) scale(1,1)"><g><path fill="none" stroke="none"></path><text fill="#000000" stroke="none" font-family="Arial" font-size="13px" font-style="normal" font-weight="normal" text-decoration="none" x="411.5" y="132.5">2 : validate username and password</text></g></g><g transform="translate(-38,10) scale(1,1)"><rect fill="#ffffff" stroke="none" x="625" y="136" width="13" height="28"></rect></g><g transform="translate(-38,10) scale(1,1)"><path fill="none" stroke="#000000" d="M 625 136 L 638 136 L 638 164 L 625 164 L 625 136 Z Z" stroke-miterlimit="10"></path></g><g transform="translate(-38,10) scale(1,1)"><path fill="none" stroke="#000000" d="M 400 207 L 190 207" stroke-miterlimit="10" stroke-dasharray="3"></path></g><g transform="translate(-38,10) scale(1,1)"><path fill="none" stroke="#000000" d="M 200.16267485762415 202.790482243984 L 190 207 L 200.16267485762415 211.209517756016" stroke-miterlimit="10"></path></g><g transform="translate(-38,10) scale(1,1)"><g><path fill="none" stroke="none"></path><text fill="#000000" stroke="none" font-family="Arial" font-size="13px" font-style="normal" font-weight="normal" text-decoration="none" x="237.5" y="223.5">4 : login successful</text></g></g><g transform="translate(-38,10) scale(1,1)"><path fill="none" stroke="#000000" d="M 632 168 L 400 168" stroke-miterlimit="10" stroke-dasharray="3"></path></g><g transform="translate(-38,10) scale(1,1)"><path fill="none" stroke="#000000" d="M 410.16267485762415 163.790482243984 L 400 168 L 410.16267485762415 172.209517756016" stroke-miterlimit="10"></path></g><g transform="translate(-38,10) scale(1,1)"><g><path fill="none" stroke="none"></path><text fill="#000000" stroke="none" font-family="Arial" font-size="13px" font-style="normal" font-weight="normal" text-decoration="none" x="445.5" y="184.5">3 : validation successful</text></g></g></g></svg>