<svg version="1.1" xmlns="http://www.w3.org/2000/svg" xmlns:xlink="http://www.w3.org/1999/xlink" width="708" height="686"><defs></defs><g><g transform="translate(-86,-102) scale(1,1)"><path fill="#ffffff" stroke="none" d="M 111.82072727272728 393.68 C 111.82072727272728 388.886167936 115.70656959767274 385 120.5 385 C 125.29343040232726 385 129.17927272727272 388.886167936 129.17927272727272 393.68 C 129.17927272727272 398.473832064 125.29343040232726 402.36 120.5 402.36 C 115.70656959767274 402.36 111.82072727272728 398.473832064 111.82072727272728 393.68 Z"></path></g><g transform="translate(-86,-102) scale(1,1)"><path fill="none" stroke="#000000" d="M 111.82072727272728 393.68 C 111.82072727272728 388.886167936 115.70656959767274 385 120.5 385 C 125.29343040232726 385 129.17927272727272 388.886167936 129.17927272727272 393.68 C 129.17927272727272 398.473832064 125.29343040232726 402.36 120.5 402.36 C 115.70656959767274 402.36 111.82072727272728 398.473832064 111.82072727272728 393.68 Z" stroke-miterlimit="10"></path></g><g transform="translate(-86,-102) scale(1,1)"><path fill="none" stroke="#000000" d="M 120.5 402.36 L 120.5 419.64" stroke-miterlimit="10"></path></g><g transform="translate(-86,-102) scale(1,1)"><path fill="none" stroke="#000000" d="M 111.31018181818183 408.84 L 129.68981818181817 408.84" stroke-miterlimit="10"></path></g><g transform="translate(-86,-102) scale(1,1)"><path fill="none" stroke="#000000" d="M 120.5 419.64 L 107.73636363636365 437" stroke-miterlimit="10"></path></g><g transform="translate(-86,-102) scale(1,1)"><path fill="none" stroke="#000000" d="M 120.5 419.64 L 133.26363636363635 437" stroke-miterlimit="10"></path></g><g transform="translate(-86,-102) scale(1,1)"><g><path fill="none" stroke="none"></path><text fill="#000000" stroke="none" font-family="Arial" font-size="13px" font-style="normal" font-weight="bold" text-decoration="none" x="107" y="457.5">User</text></g></g><g transform="translate(-86,-102) scale(1,1)"><path fill="#ffffff" stroke="none" d="M 694.3207272727273 673.6800000000001 C 694.3207272727273 668.8861679360001 698.2065695976727 665 703 665 C 707.7934304023273 665 711.6792727272727 668.8861679360001 711.6792727272727 673.6800000000001 C 711.6792727272727 678.473832064 707.7934304023273 682.36 703 682.36 C 698.2065695976727 682.36 694.3207272727273 678.473832064 694.3207272727273 673.6800000000001 Z"></path></g><g transform="translate(-86,-102) scale(1,1)"><path fill="none" stroke="#000000" d="M 694.3207272727273 673.6800000000001 C 694.3207272727273 668.8861679360001 698.2065695976727 665 703 665 C 707.7934304023273 665 711.6792727272727 668.8861679360001 711.6792727272727 673.6800000000001 C 711.6792727272727 678.473832064 707.7934304023273 682.36 703 682.36 C 698.2065695976727 682.36 694.3207272727273 678.473832064 694.3207272727273 673.6800000000001 Z" stroke-miterlimit="10"></path></g><g transform="translate(-86,-102) scale(1,1)"><path fill="none" stroke="#000000" d="M 703 682.36 L 703 699.64" stroke-miterlimit="10"></path></g><g transform="translate(-86,-102) scale(1,1)"><path fill="none" stroke="#000000" d="M 693.8101818181818 688.84 L 712.1898181818182 688.84" stroke-miterlimit="10"></path></g><g transform="translate(-86,-102) scale(1,1)"><path fill="none" stroke="#000000" d="M 703 699.64 L 690.2363636363636 717" stroke-miterlimit="10"></path></g><g transform="translate(-86,-102) scale(1,1)"><path fill="none" stroke="#000000" d="M 703 699.64 L 715.7636363636364 717" stroke-miterlimit="10"></path></g><g transform="translate(-86,-102) scale(1,1)"><g><path fill="none" stroke="none"></path><text fill="#000000" stroke="none" font-family="Arial" font-size="13px" font-style="normal" font-weight="bold" text-decoration="none" x="664.5" y="737.5">Administrator</text></g></g><g transform="translate(-86,-102) scale(1,1)"><path fill="#C0C0C0" stroke="none" d="M 392 136 C 392 126.6111584 414.1619024 119 441.5 119 C 468.8380976 119 491 126.6111584 491 136 C 491 145.3888416 468.8380976 153 441.5 153 C 414.1619024 153 392 145.3888416 392 136 Z" opacity="0.2"></path></g><g transform="translate(-86,-102) scale(1,1)"><path fill="#ffffff" stroke="none" d="M 385 129 C 385 119.6111584 407.1619024 112 434.5 112 C 461.8380976 112 484 119.6111584 484 129 C 484 138.3888416 461.8380976 146 434.5 146 C 407.1619024 146 385 138.3888416 385 129 Z"></path></g><g transform="translate(-86,-102) scale(1,1)"><path fill="none" stroke="#000000" d="M 385 129 C 385 119.6111584 407.1619024 112 434.5 112 C 461.8380976 112 484 119.6111584 484 129 C 484 138.3888416 461.8380976 146 434.5 146 C 407.1619024 146 385 138.3888416 385 129 Z" stroke-miterlimit="10"></path></g><g transform="translate(-86,-102) scale(1,1)"><g><path fill="none" stroke="none"></path><text fill="#000000" stroke="none" font-family="Arial" font-size="13px" font-style="normal" font-weight="bold" text-decoration="none" x="421" y="136">login</text></g></g><g transform="translate(-86,-102) scale(1,1)"><path fill="#C0C0C0" stroke="none" d="M 392 216 C 392 206.6111584 414.1619024 199 441.5 199 C 468.8380976 199 491 206.6111584 491 216 C 491 225.3888416 468.8380976 233 441.5 233 C 414.1619024 233 392 225.3888416 392 216 Z" opacity="0.2"></path></g><g transform="translate(-86,-102) scale(1,1)"><path fill="#ffffff" stroke="none" d="M 385 209 C 385 199.6111584 407.1619024 192 434.5 192 C 461.8380976 192 484 199.6111584 484 209 C 484 218.3888416 461.8380976 226 434.5 226 C 407.1619024 226 385 218.3888416 385 209 Z"></path></g><g transform="translate(-86,-102) scale(1,1)"><path fill="none" stroke="#000000" d="M 385 209 C 385 199.6111584 407.1619024 192 434.5 192 C 461.8380976 192 484 199.6111584 484 209 C 484 218.3888416 461.8380976 226 434.5 226 C 407.1619024 226 385 218.3888416 385 209 Z" stroke-miterlimit="10"></path></g><g transform="translate(-86,-102) scale(1,1)"><g><path fill="none" stroke="none"></path><text fill="#000000" stroke="none" font-family="Arial" font-size="13px" font-style="normal" font-weight="bold" text-decoration="none" x="413.5" y="216">sign up</text></g></g><g transform="translate(-86,-102) scale(1,1)"><path fill="#C0C0C0" stroke="none" d="M 392 280 C 392 270.6111584 414.1619024 263 441.5 263 C 468.8380976 263 491 270.6111584 491 280 C 491 289.3888416 468.8380976 297 441.5 297 C 414.1619024 297 392 289.3888416 392 280 Z" opacity="0.2"></path></g><g transform="translate(-86,-102) scale(1,1)"><path fill="#ffffff" stroke="none" d="M 385 273 C 385 263.6111584 407.1619024 256 434.5 256 C 461.8380976 256 484 263.6111584 484 273 C 484 282.3888416 461.8380976 290 434.5 290 C 407.1619024 290 385 282.3888416 385 273 Z"></path></g><g transform="translate(-86,-102) scale(1,1)"><path fill="none" stroke="#000000" d="M 385 273 C 385 263.6111584 407.1619024 256 434.5 256 C 461.8380976 256 484 263.6111584 484 273 C 484 282.3888416 461.8380976 290 434.5 290 C 407.1619024 290 385 282.3888416 385 273 Z" stroke-miterlimit="10"></path></g><g transform="translate(-86,-102) scale(1,1)"><g><path fill="none" stroke="none"></path><text fill="#000000" stroke="none" font-family="Arial" font-size="13px" font-style="normal" font-weight="bold" text-decoration="none" x="417" y="280">logout</text></g></g><g transform="translate(-86,-102) scale(1,1)"><path fill="#C0C0C0" stroke="none" d="M 356 400 C 356 390.6111584 394.27964959999997 383 441.5 383 C 488.72035040000003 383 527 390.6111584 527 400 C 527 409.3888416 488.72035040000003 417 441.5 417 C 394.27964959999997 417 356 409.3888416 356 400 Z" opacity="0.2"></path></g><g transform="translate(-86,-102) scale(1,1)"><path fill="#ffffff" stroke="none" d="M 349 393 C 349 383.6111584 387.27964959999997 376 434.5 376 C 481.72035040000003 376 520 383.6111584 520 393 C 520 402.3888416 481.72035040000003 410 434.5 410 C 387.27964959999997 410 349 402.3888416 349 393 Z"></path></g><g transform="translate(-86,-102) scale(1,1)"><path fill="none" stroke="#000000" d="M 349 393 C 349 383.6111584 387.27964959999997 376 434.5 376 C 481.72035040000003 376 520 383.6111584 520 393 C 520 402.3888416 481.72035040000003 410 434.5 410 C 387.27964959999997 410 349 402.3888416 349 393 Z" stroke-miterlimit="10"></path></g><g transform="translate(-86,-102) scale(1,1)"><g><path fill="none" stroke="none"></path><text fill="#000000" stroke="none" font-family="Arial" font-size="13px" font-style="normal" font-weight="bold" text-decoration="none" x="384" y="400">search for movies</text></g></g><g transform="translate(-86,-102) scale(1,1)"><path fill="#C0C0C0" stroke="none" d="M 383 592 C 383 582.6111584 409.1913392 575 441.5 575 C 473.8086608 575 500 582.6111584 500 592 C 500 601.3888416 473.8086608 609 441.5 609 C 409.1913392 609 383 601.3888416 383 592 Z" opacity="0.2"></path></g><g transform="translate(-86,-102) scale(1,1)"><path fill="#ffffff" stroke="none" d="M 376 585 C 376 575.6111584 402.1913392 568 434.5 568 C 466.8086608 568 493 575.6111584 493 585 C 493 594.3888416 466.8086608 602 434.5 602 C 402.1913392 602 376 594.3888416 376 585 Z"></path></g><g transform="translate(-86,-102) scale(1,1)"><path fill="none" stroke="#000000" d="M 376 585 C 376 575.6111584 402.1913392 568 434.5 568 C 466.8086608 568 493 575.6111584 493 585 C 493 594.3888416 466.8086608 602 434.5 602 C 402.1913392 602 376 594.3888416 376 585 Z" stroke-miterlimit="10"></path></g><g transform="translate(-86,-102) scale(1,1)"><g><path fill="none" stroke="none"></path><text fill="#000000" stroke="none" font-family="Arial" font-size="13px" font-style="normal" font-weight="bold" text-decoration="none" x="401.5" y="592">rate movies</text></g></g><g transform="translate(-86,-102) scale(1,1)"><path fill="#C0C0C0" stroke="none" d="M 591 176 C 591 166.6111584 613.8334752 159 642 159 C 670.1665248 159 693 166.6111584 693 176 C 693 185.3888416 670.1665248 193 642 193 C 613.8334752 193 591 185.3888416 591 176 Z" opacity="0.2"></path></g><g transform="translate(-86,-102) scale(1,1)"><path fill="#ffffff" stroke="none" d="M 584 169 C 584 159.6111584 606.8334752 152 635 152 C 663.1665248 152 686 159.6111584 686 169 C 686 178.3888416 663.1665248 186 635 186 C 606.8334752 186 584 178.3888416 584 169 Z"></path></g><g transform="translate(-86,-102) scale(1,1)"><path fill="none" stroke="#000000" d="M 584 169 C 584 159.6111584 606.8334752 152 635 152 C 663.1665248 152 686 159.6111584 686 169 C 686 178.3888416 663.1665248 186 635 186 C 606.8334752 186 584 178.3888416 584 169 Z" stroke-miterlimit="10"></path></g><g transform="translate(-86,-102) scale(1,1)"><g><path fill="none" stroke="none"></path><text fill="#000000" stroke="none" font-family="Arial" font-size="13px" font-style="normal" font-weight="bold" text-decoration="none" x="608.5" y="176">validation</text></g></g><g transform="translate(-86,-102) scale(1,1)"><path fill="#C0C0C0" stroke="none" d="M 351 344 C 351 334.6111584 391.5182256 327 441.5 327 C 491.4817744 327 532 334.6111584 532 344 C 532 353.3888416 491.4817744 361 441.5 361 C 391.5182256 361 351 353.3888416 351 344 Z" opacity="0.2"></path></g><g transform="translate(-86,-102) scale(1,1)"><path fill="#ffffff" stroke="none" d="M 344 337 C 344 327.6111584 384.5182256 320 434.5 320 C 484.4817744 320 525 327.6111584 525 337 C 525 346.3888416 484.4817744 354 434.5 354 C 384.5182256 354 344 346.3888416 344 337 Z"></path></g><g transform="translate(-86,-102) scale(1,1)"><path fill="none" stroke="#000000" d="M 344 337 C 344 327.6111584 384.5182256 320 434.5 320 C 484.4817744 320 525 327.6111584 525 337 C 525 346.3888416 484.4817744 354 434.5 354 C 384.5182256 354 344 346.3888416 344 337 Z" stroke-miterlimit="10"></path></g><g transform="translate(-86,-102) scale(1,1)"><g><path fill="none" stroke="none"></path><text fill="#000000" stroke="none" font-family="Arial" font-size="13px" font-style="normal" font-weight="bold" text-decoration="none" x="383" y="344">view movie details</text></g></g><g transform="translate(-86,-102) scale(1,1)"><path fill="#C0C0C0" stroke="none" d="M 327 464 C 327 454.6111584 376.4725296 447 437.5 447 C 498.5274704 447 548 454.6111584 548 464 C 548 473.3888416 498.5274704 481 437.5 481 C 376.4725296 481 327 473.3888416 327 464 Z" opacity="0.2"></path></g><g transform="translate(-86,-102) scale(1,1)"><path fill="#ffffff" stroke="none" d="M 320 457 C 320 447.6111584 369.4725296 440 430.5 440 C 491.5274704 440 541 447.6111584 541 457 C 541 466.3888416 491.5274704 474 430.5 474 C 369.4725296 474 320 466.3888416 320 457 Z"></path></g><g transform="translate(-86,-102) scale(1,1)"><path fill="none" stroke="#000000" d="M 320 457 C 320 447.6111584 369.4725296 440 430.5 440 C 491.5274704 440 541 447.6111584 541 457 C 541 466.3888416 491.5274704 474 430.5 474 C 369.4725296 474 320 466.3888416 320 457 Z" stroke-miterlimit="10"></path></g><g transform="translate(-86,-102) scale(1,1)"><g><path fill="none" stroke="none"></path><text fill="#000000" stroke="none" font-family="Arial" font-size="13px" font-style="normal" font-weight="bold" text-decoration="none" x="364.5" y="464">view suggested movies</text></g></g><g transform="translate(-86,-102) scale(1,1)"><path fill="#C0C0C0" stroke="none" d="M 343 528 C 343 518.6111584 386.4283744 511 440 511 C 493.5716256 511 537 518.6111584 537 528 C 537 537.3888416 493.5716256 545 440 545 C 386.4283744 545 343 537.3888416 343 528 Z" opacity="0.2"></path></g><g transform="translate(-86,-102) scale(1,1)"><path fill="#ffffff" stroke="none" d="M 336 521 C 336 511.6111584 379.4283744 504 433 504 C 486.5716256 504 530 511.6111584 530 521 C 530 530.3888416 486.5716256 538 433 538 C 379.4283744 538 336 530.3888416 336 521 Z"></path></g><g transform="translate(-86,-102) scale(1,1)"><path fill="none" stroke="#000000" d="M 336 521 C 336 511.6111584 379.4283744 504 433 504 C 486.5716256 504 530 511.6111584 530 521 C 530 530.3888416 486.5716256 538 433 538 C 379.4283744 538 336 530.3888416 336 521 Z" stroke-miterlimit="10"></path></g><g transform="translate(-86,-102) scale(1,1)"><g><path fill="none" stroke="none"></path><text fill="#000000" stroke="none" font-family="Arial" font-size="13px" font-style="normal" font-weight="bold" text-decoration="none" x="377.5" y="528">view related movies</text></g></g><g transform="translate(-86,-102) scale(1,1)"><path fill="#C0C0C0" stroke="none" d="M 383 656 C 383 646.6111584 408.9674816 639 441 639 C 473.0325184 639 499 646.6111584 499 656 C 499 665.3888416 473.0325184 673 441 673 C 408.9674816 673 383 665.3888416 383 656 Z" opacity="0.2"></path></g><g transform="translate(-86,-102) scale(1,1)"><path fill="#ffffff" stroke="none" d="M 376 649 C 376 639.6111584 401.9674816 632 434 632 C 466.0325184 632 492 639.6111584 492 649 C 492 658.3888416 466.0325184 666 434 666 C 401.9674816 666 376 658.3888416 376 649 Z"></path></g><g transform="translate(-86,-102) scale(1,1)"><path fill="none" stroke="#000000" d="M 376 649 C 376 639.6111584 401.9674816 632 434 632 C 466.0325184 632 492 639.6111584 492 649 C 492 658.3888416 466.0325184 666 434 666 C 401.9674816 666 376 658.3888416 376 649 Z" stroke-miterlimit="10"></path></g><g transform="translate(-86,-102) scale(1,1)"><g><path fill="none" stroke="none"></path><text fill="#000000" stroke="none" font-family="Arial" font-size="13px" font-style="normal" font-weight="bold" text-decoration="none" x="401.5" y="656">add movies</text></g></g><g transform="translate(-86,-102) scale(1,1)"><path fill="#C0C0C0" stroke="none" d="M 372 712 C 372 702.6111584 403.1162064 695 441.5 695 C 479.8837936 695 511 702.6111584 511 712 C 511 721.3888416 479.8837936 729 441.5 729 C 403.1162064 729 372 721.3888416 372 712 Z" opacity="0.2"></path></g><g transform="translate(-86,-102) scale(1,1)"><path fill="#ffffff" stroke="none" d="M 365 705 C 365 695.6111584 396.1162064 688 434.5 688 C 472.8837936 688 504 695.6111584 504 705 C 504 714.3888416 472.8837936 722 434.5 722 C 396.1162064 722 365 714.3888416 365 705 Z"></path></g><g transform="translate(-86,-102) scale(1,1)"><path fill="none" stroke="#000000" d="M 365 705 C 365 695.6111584 396.1162064 688 434.5 688 C 472.8837936 688 504 695.6111584 504 705 C 504 714.3888416 472.8837936 722 434.5 722 C 396.1162064 722 365 714.3888416 365 705 Z" stroke-miterlimit="10"></path></g><g transform="translate(-86,-102) scale(1,1)"><g><path fill="none" stroke="none"></path><text fill="#000000" stroke="none" font-family="Arial" font-size="13px" font-style="normal" font-weight="bold" text-decoration="none" x="396" y="712">remove users</text></g></g><g transform="translate(-86,-102) scale(1,1)"><path fill="#C0C0C0" stroke="none" d="M 341 768 C 341 758.6111584 385.9953776 751 441.5 751 C 497.0046224 751 542 758.6111584 542 768 C 542 777.3888416 497.0046224 785 441.5 785 C 385.9953776 785 341 777.3888416 341 768 Z" opacity="0.2"></path></g><g transform="translate(-86,-102) scale(1,1)"><path fill="#ffffff" stroke="none" d="M 334 761 C 334 751.6111584 378.9953776 744 434.5 744 C 490.0046224 744 535 751.6111584 535 761 C 535 770.3888416 490.0046224 778 434.5 778 C 378.9953776 778 334 770.3888416 334 761 Z"></path></g><g transform="translate(-86,-102) scale(1,1)"><path fill="none" stroke="#000000" d="M 334 761 C 334 751.6111584 378.9953776 744 434.5 744 C 490.0046224 744 535 751.6111584 535 761 C 535 770.3888416 490.0046224 778 434.5 778 C 378.9953776 778 334 770.3888416 334 761 Z" stroke-miterlimit="10"></path></g><g transform="translate(-86,-102) scale(1,1)"><g><path fill="none" stroke="none"></path><text fill="#000000" stroke="none" font-family="Arial" font-size="13px" font-style="normal" font-weight="bold" text-decoration="none" x="375.5" y="768">update movie details</text></g></g><g transform="translate(-86,-102) scale(1,1)"><path fill="none" stroke="#000000" d="M 485 199 L 583 179" stroke-miterlimit="10" stroke-dasharray="3"></path></g><g transform="translate(-86,-102) scale(1,1)"><path fill="none" stroke="#000000" d="M 573.8843051474246 185.15663116929466 L 583 179 L 572.2008347054439 176.90762600358934" stroke-miterlimit="10"></path></g><g transform="translate(-86,-102) scale(1,1)"><g><path fill="none" stroke="none"></path><text fill="#000000" stroke="none" font-family="Arial" font-size="13px" font-style="normal" font-weight="normal" text-decoration="none" x="493.5" y="186.5">«include»</text></g></g><g transform="translate(-86,-102) scale(1,1)"><path fill="none" stroke="#000000" d="M 146 405 L 408 227" stroke-miterlimit="10"></path></g><g transform="translate(-86,-102) scale(1,1)"><path fill="none" stroke="#000000" d="M 146 411 L 396 291" stroke-miterlimit="10"></path></g><g transform="translate(-86,-102) scale(1,1)"><path fill="none" stroke="#000000" d="M 146 421 L 348 401" stroke-miterlimit="10"></path></g><g transform="translate(-86,-102) scale(1,1)"><path fill="none" stroke="#000000" d="M 146 436 L 399 567" stroke-miterlimit="10"></path></g><g transform="translate(-86,-102) scale(1,1)"><path fill="none" stroke="#000000" d="M 146 416 L 368 355" stroke-miterlimit="10"></path></g><g transform="translate(-86,-102) scale(1,1)"><path fill="none" stroke="#000000" d="M 146 426 L 319 445" stroke-miterlimit="10"></path></g><g transform="translate(-86,-102) scale(1,1)"><path fill="none" stroke="#000000" d="M 146 431 L 376 503" stroke-miterlimit="10"></path></g><g transform="translate(-86,-102) scale(1,1)"><path fill="none" stroke="#000000" d="M 655 693 L 493 661" stroke-miterlimit="10"></path></g><g transform="translate(-86,-102) scale(1,1)"><path fill="none" stroke="#000000" d="M 655 703 L 505 704" stroke-miterlimit="10"></path></g><g transform="translate(-86,-102) scale(1,1)"><path fill="none" stroke="#000000" d="M 655 713 L 517 743" stroke-miterlimit="10"></path></g><g transform="translate(-86,-102) scale(1,1)"><path fill="none" stroke="#000000" d="M 146 399 L 415 147" stroke-miterlimit="10"></path></g><g transform="translate(-86,-102) scale(1,1)"><path fill="none" stroke="#000000" d="M 485 139 L 583 159" stroke-miterlimit="10" stroke-dasharray="3"></path></g><g transform="translate(-86,-102) scale(1,1)"><path fill="none" stroke="#000000" d="M 572.2008347054439 161.09237399641066 L 583 159 L 573.8843051474246 152.84336883070534" stroke-miterlimit="10"></path></g><g transform="translate(-86,-102) scale(1,1)"><g><path fill="none" stroke="none"></path><text fill="#000000" stroke="none" font-family="Arial" font-size="13px" font-style="normal" font-weight="normal" text-decoration="none" x="495.5" y="139.5">«include»</text></g></g><g transform="translate(-86,-102) scale(1,1)"><path fill="#C0C0C0" stroke="none" d="M 631 432 C 631 422.6111584 666.817216 415 711 415 C 755.182784 415 791 422.6111584 791 432 C 791 441.3888416 755.182784 449 711 449 C 666.817216 449 631 441.3888416 631 432 Z" opacity="0.2"></path></g><g transform="translate(-86,-102) scale(1,1)"><path fill="#ffffff" stroke="none" d="M 624 425 C 624 415.6111584 659.817216 408 704 408 C 748.182784 408 784 415.6111584 784 425 C 784 434.3888416 748.182784 442 704 442 C 659.817216 442 624 434.3888416 624 425 Z"></path></g><g transform="translate(-86,-102) scale(1,1)"><path fill="none" stroke="#000000" d="M 624 425 C 624 415.6111584 659.817216 408 704 408 C 748.182784 408 784 415.6111584 784 425 C 784 434.3888416 748.182784 442 704 442 C 659.817216 442 624 434.3888416 624 425 Z" stroke-miterlimit="10"></path></g><g transform="translate(-86,-102) scale(1,1)"><g><path fill="none" stroke="none"></path><text fill="#000000" stroke="none" font-family="Arial" font-size="13px" font-style="normal" font-weight="bold" text-decoration="none" x="654.5" y="432">access database</text></g></g><g transform="translate(-86,-102) scale(1,1)"><path fill="#C0C0C0" stroke="none" d="M 615 624 C 615 614.6111584 651.4887888 607 696.5 607 C 741.5112112 607 778 614.6111584 778 624 C 778 633.3888416 741.5112112 641 696.5 641 C 651.4887888 641 615 633.3888416 615 624 Z" opacity="0.2"></path></g><g transform="translate(-86,-102) scale(1,1)"><path fill="#ffffff" stroke="none" d="M 608 617 C 608 607.6111584 644.4887888 600 689.5 600 C 734.5112112 600 771 607.6111584 771 617 C 771 626.3888416 734.5112112 634 689.5 634 C 644.4887888 634 608 626.3888416 608 617 Z"></path></g><g transform="translate(-86,-102) scale(1,1)"><path fill="none" stroke="#000000" d="M 608 617 C 608 607.6111584 644.4887888 600 689.5 600 C 734.5112112 600 771 607.6111584 771 617 C 771 626.3888416 734.5112112 634 689.5 634 C 644.4887888 634 608 626.3888416 608 617 Z" stroke-miterlimit="10"></path></g><g transform="translate(-86,-102) scale(1,1)"><g><path fill="none" stroke="none"></path><text fill="#000000" stroke="none" font-family="Arial" font-size="13px" font-style="normal" font-weight="bold" text-decoration="none" x="641.5" y="624">update database</text></g></g><g transform="translate(-86,-102) scale(1,1)"><path fill="none" stroke="#000000" d="M 489 355 L 649 407" stroke-miterlimit="10" stroke-dasharray="3"></path></g><g transform="translate(-86,-102) scale(1,1)"><path fill="none" stroke="#000000" d="M 638.0338466713218 407.8622535427123 L 649 407 L 640.6360532906062 399.8554639449142" stroke-miterlimit="10"></path></g><g transform="translate(-86,-102) scale(1,1)"><path fill="none" stroke="#000000" d="M 521 403 L 623 415" stroke-miterlimit="10" stroke-dasharray="3"></path></g><g transform="translate(-86,-102) scale(1,1)"><path fill="none" stroke="#000000" d="M 612.4150880173437 417.99326549430856 L 623 415 L 613.3987786298837 409.63189528771824" stroke-miterlimit="10"></path></g><g transform="translate(-86,-102) scale(1,1)"><path fill="none" stroke="#000000" d="M 542 444 L 623 434" stroke-miterlimit="10" stroke-dasharray="3"></path></g><g transform="translate(-86,-102) scale(1,1)"><path fill="none" stroke="#000000" d="M 613.4296763077033 439.42299773415635 L 623 434 L 612.3981207468455 431.067397691208" stroke-miterlimit="10"></path></g><g transform="translate(-86,-102) scale(1,1)"><path fill="none" stroke="#000000" d="M 494 593 L 607 607" stroke-miterlimit="10" stroke-dasharray="3"></path></g><g transform="translate(-86,-102) scale(1,1)"><path fill="none" stroke="#000000" d="M 596.3968594446412 609.9280386546811 L 607 607 L 597.4320114231303 601.5728833997331" stroke-miterlimit="10"></path></g><g transform="translate(-86,-102) scale(1,1)"><path fill="none" stroke="#000000" d="M 493 642 L 607 627" stroke-miterlimit="10" stroke-dasharray="3"></path></g><g transform="translate(-86,-102) scale(1,1)"><path fill="none" stroke="#000000" d="M 597.473322945228 632.4993112563375 L 607 627 L 596.3750217711846 624.1522223336082" stroke-miterlimit="10"></path></g><g transform="translate(-86,-102) scale(1,1)"><path fill="none" stroke="#000000" d="M 484 503 L 653 443" stroke-miterlimit="10" stroke-dasharray="3"></path></g><g transform="translate(-86,-102) scale(1,1)"><path fill="none" stroke="#000000" d="M 644.8313661736787 450.3670497087694 L 653 443 L 642.0146128219692 442.4331944347876" stroke-miterlimit="10"></path></g></g></svg>